<?xml version="1.0" encoding="UTF-8"?>
<!DOCTYPE svg PUBLIC "-//W3C//DTD SVG 1.1//EN" "http://www.w3.org/Graphics/SVG/1.1/DTD/svg11.dtd">
<!-- Creator: CorelDRAW 2019 (64 Bit Versão de avaliação) -->
<svg xmlns="http://www.w3.org/2000/svg" xml:space="preserve" width="42.392mm" height="42.5646mm" version="1.1" style="shape-rendering:geometricPrecision; text-rendering:geometricPrecision; image-rendering:optimizeQuality; fill-rule:evenodd; clip-rule:evenodd"
viewBox="0 0 708.76 711.64"
 xmlns:xlink="http://www.w3.org/1999/xlink"
 xmlns:xodm="http://www.corel.com/coreldraw/odm/2003">
 <defs>
  <style type="text/css">
   <![CDATA[
    .fil11 {fill:#5D5D5D;fill-opacity:0.501961}
    .fil3 {fill:#626262;fill-opacity:0.501961}
    .fil2 {fill:#646464;fill-opacity:0.501961}
    .fil9 {fill:#6B6B6B;fill-opacity:0.501961}
    .fil4 {fill:#6C6C6C;fill-opacity:0.501961}
    .fil6 {fill:#6D6D6D;fill-opacity:0.501961}
    .fil1 {fill:#707070;fill-opacity:0.501961}
    .fil7 {fill:#717171;fill-opacity:0.501961}
    .fil10 {fill:#727272;fill-opacity:0.501961}
    .fil8 {fill:#737373;fill-opacity:0.501961}
    .fil13 {fill:#767676;fill-opacity:0.501961}
    .fil5 {fill:#777777;fill-opacity:0.501961}
    .fil12 {fill:#7D7D7D;fill-opacity:0.501961}
    .fil0 {fill:#FEFEFE;fill-opacity:0.501961}
   ]]>
  </style>
 </defs>
 <g id="Camada_x0020_1">
  <metadata id="CorelCorpID_0Corel-Layer"/>
  <g id="_2179374976432">
   <path class="fil0" d="M397.44 0.45c-0.82,0.45 0.76,0.02 -1.04,0.41 -0.28,0.06 -1.03,0.03 -1.34,0.03 -14.66,0.04 -34.38,3.07 -48.92,5.46 -17.35,2.85 -28.26,6.12 -44.21,10.17 -13.55,3.44 -27.61,9.36 -40.41,13.97 -1.7,0.61 -2.96,1.27 -4.76,1.98 -1.8,0.71 -2.97,1.22 -4.75,1.99l-27.73 13.16 -0.45 0.45 -13.75 7.38c-1.2,0.73 -1.53,1.02 -2.8,1.69 -1.87,0.98 -3.71,2.05 -5.65,3.33 -3.61,2.37 -6.97,4.2 -10.51,6.56l-39.98 29.23c-1.49,1.39 -3.08,2.74 -4.61,3.93l-10.5 9.27c-7.57,6.47 -16.12,14.87 -22.65,22.29l-6.53 6.95c-0.75,0.84 -1.27,1.23 -2.01,2.03 -8.89,9.57 -26.74,32.66 -34.06,43.67l-5.15 7.88c-1.2,1.79 -2.28,3.58 -3.51,5.48 -18.91,29.29 -32.86,61.41 -43.96,94.43 -0.77,2.29 -1.33,4.29 -2.02,6.51 -0.3,0.97 -0.53,2.12 -0.84,3.2 -0.42,1.48 -0.63,1.64 -1.09,3.41 -5.68,22.08 -8.73,33.77 -12.02,57.17 -0.67,4.72 -1.71,10.46 -1.72,15.8l-0.45 1.03 0 3.46 217.07 0c1.02,-12.22 11.13,-39.81 16.78,-51.06 0.43,-0.86 0.59,-1.22 1,-2.14l3.7 -7.08c2.59,-4.25 4.46,-8.08 7.55,-12.67 7.36,-10.95 9.75,-13.6 17.44,-23.45 4.08,-5.22 18.98,-19.58 24.33,-23.75l11.44 -8.79c14.56,-10.26 23.45,-15.07 39.39,-22.17 18.91,-8.43 39.32,-13 59.85,-15.2l12.66 -0.82c11.69,-0.62 20.35,-0.38 32.05,1.21 12.31,1.67 17,2.42 28.72,5.43 1.99,0.51 3.68,1.27 5.75,1.45l0.46 0.45c2.63,0.22 10.33,3.38 13.53,4.43 1.87,0.61 2.97,1.22 4.5,1.8 1.79,0.68 2.44,0.86 4.13,1.71l12.53 5.9c12.61,7.35 17.53,9.48 29.83,18.7 5.82,4.36 21.46,17.7 25.54,22.99 0.97,1.26 1.76,1.92 2.85,2.99l13.78 16.78c1.84,2.65 3.34,4.8 5.12,7.46 6.59,9.89 9.16,14.71 14.24,24.86 0.41,0.82 0.6,1.35 0.99,2.16 0.75,1.57 1.25,2.91 1.94,4.35 4.35,8.96 10.13,26.99 12.09,36.44 0.43,2.05 0.72,2.41 1.06,4.78 0.65,4.53 -0.56,3.26 15.16,3.26 24.42,0 48.84,0 73.26,0l-0.03 -266.39c-0.38,-2.12 -3.05,-3.53 -4.57,-4.86 -1.8,-1.58 -2.6,-2.76 -4.65,-4.34 -3.36,-2.6 -10.13,-9.04 -15.02,-12.84 -5.31,-4.14 -9.78,-8 -15.47,-11.94 -1.22,-0.84 -1.45,-1.23 -2.51,-1.98l-42.22 -26.98 -43.49 -21.22c-18.77,-7.89 -35.53,-12.98 -55.15,-18.55 -4.21,-1.2 -25.81,-6.47 -30.37,-6.48 -0.8,0 -0.66,0.24 -0.66,-0.45l-24.91 -3.64c-8.8,-0.82 -17.04,-2.18 -27.01,-2.21 -0.66,0 -0.67,0.01 -1.31,-0.12 -0.09,-0.02 -0.29,-0 -0.36,-0.15 -0.07,-0.14 -0.22,-0.12 -0.33,-0.18 -7.69,0 -13.78,-0.45 -21.37,-0.45 -7.78,0 -14.03,0.45 -21.89,0.45z"/>
   <path class="fil0" d="M6.3 504.4c0.65,0 0.45,-0.14 0.45,0.58 0.02,6.26 8.93,36.24 11.53,45.08 0.61,2.06 1.2,2.99 1.77,4.97 0.68,2.35 0.97,3.29 1.79,5.4 1.44,3.71 2.41,6.96 3.85,10.53 0.61,1.52 1.17,3.15 1.86,4.88 0.78,1.96 1.4,3.25 2.06,5.12 0.67,1.88 1.39,3.01 2.18,5.01 0.77,1.94 1.31,3.13 2.11,5.07l6.74 14.37c2.79,6.23 8.82,17.07 12.25,23.25 4.63,8.34 11.06,18.47 16.32,26.36l4.36 6.42c6.74,9.2 18.79,25.88 26.31,33.9 0.6,0.64 0.97,0.9 1.55,1.59l11.91 13.25c0.77,0.8 1.77,1.23 2.99,1.44l9.95 0c194.15,0 388.3,0 582.46,0l0 -254.29 -87.19 0 -3.99 16.68c-3.01,10.22 -6.43,21.3 -10.99,30.79l-6.9 14.22c-1.3,2.32 -2.47,4.35 -3.76,6.58 -1.18,2.05 -2.78,4.28 -4.01,6.33 -3.12,5.21 -9.29,13.44 -13.19,18.26l-15.2 16.7c-0.56,0.47 -0.62,0.52 -1.15,1.09 -3.74,4.06 -10.83,10.12 -15.21,13.54l-15.39 11.12c-18.72,11.92 -32,18.48 -53.51,25.13 -4.67,1.44 -21.49,5.78 -25.94,5.78 0,0.67 0.14,0.45 -0.63,0.45 -4.44,0.01 -15.74,2.26 -22.91,2.27l-36.16 -1.62c-19.89,-2.75 -41.15,-7.95 -59.14,-16.81l-16.6 -8.57c-7.9,-4.73 -15.68,-9.55 -22.88,-15.31l-7 -5.59c-9.77,-7.64 -23.54,-22.36 -30.82,-32.09l-10.61 -15c-1.8,-2.69 -3.12,-5.15 -4.69,-7.89 -4.5,-7.8 -9.06,-16.84 -12.44,-25.31 -1.26,-3.16 -2.32,-5.87 -3.44,-9.14 -0.61,-1.78 -1.06,-3.01 -1.58,-4.71 -1.71,-5.56 -6.23,-20.55 -6.34,-25.52l-0.45 -0.48c-1.09,-1.48 -0.47,-0.92 -5.85,-0.9l-210.78 0c0,10.27 2.56,25.28 4.3,35.68 0.35,2.08 0.62,4.08 1,5.74 0.36,1.57 0.95,3.98 0.99,5.62z"/>
   <path class="fil0" d="M407.24 299.21c-0.55,0.33 0.4,0.03 -0.96,0.41 -0.17,0.05 -0.6,0.03 -0.88,0.04 -7.34,0 -24.14,4.53 -31.15,7.5l-16.04 7.77 -0.45 0.45c-5.26,2.78 -13.5,8.62 -17.64,12.47 -4.17,3.88 -8.59,7.6 -12.27,12l-9.01 11.66c-2.2,3.15 -4.08,5.87 -5.87,9.4 -0.93,1.83 -1.61,2.73 -2.55,4.64 -0.92,1.86 -1.76,3.4 -2.48,5.16 -0.9,2.2 -3.94,9.19 -4.11,11.17l-0.45 0.54c-2.34,9.1 -5.74,20.94 -5.86,30.9 -0.24,19.31 1.27,31.67 7.03,48.27l5.57 12.85c6.35,12.77 17.03,27.05 27.76,36.5l10.25 8.17c11.94,9 29.95,16.97 44.8,19.91 18.25,3.62 31.47,4.21 50.49,0.37 6.43,-1.3 11.98,-2.98 17.89,-5.03 1.52,-0.53 1.78,-0.79 3.16,-1.34 9.91,-3.96 21.17,-10.17 29.37,-16.91 11.66,-9.58 18.3,-16.41 26.71,-29.01 4.91,-7.36 9.19,-15.64 12.43,-24.42 0.87,-2.35 1.64,-4.22 2.32,-6.67 2.79,-10.12 3.13,-12.12 4.69,-23.17 2.38,-16.91 -0.95,-39.72 -7.38,-55.91l-2.7 -6.73 -0.45 -0.45c-0.39,-1.65 -1.92,-4.36 -2.69,-5.85 -0.6,-1.16 -1,-1.62 -1.66,-2.84 -4.92,-9.22 -14.9,-22.51 -22.96,-29.61 -3.31,-2.91 -11.12,-9.38 -14.52,-11.54 -1.07,-0.68 -1.76,-1.2 -2.7,-1.8l-11.15 -6.37c-4.77,-2.18 -14.64,-7.18 -19.38,-7.58l-0.45 -0.45c-1.5,-0.13 -3.65,-0.92 -5.03,-1.26 -1.92,-0.48 -3.04,-0.72 -5.11,-1.18 -3.47,-0.77 -7,-1.62 -10.98,-1.6 -0.43,-0 -0.89,0.03 -1.31,-0.04 -0.87,-0.15 -0.47,-0.13 -0.91,-0.41 -3.83,0 -7.29,-0.45 -11.71,-0.45 -1.92,0 -3.96,-0.07 -5.86,-0.02 -2.34,0.07 -3.03,0.46 -5.78,0.46z"/>
   <path class="fil1" d="M397.44 0.45c-0.3,0 -1.15,-0.03 -1.44,0.03 -0.94,0.21 -0.42,0.03 -0.94,0.41 0.31,0 1.06,0.03 1.34,-0.03 1.8,-0.39 0.22,0.03 1.04,-0.41z"/>
   <path class="fil1" d="M442.7 0.9c0,-0.77 -1.11,-0.45 -2,-0.45 0.11,0.06 0.27,0.04 0.33,0.18 0.07,0.15 0.26,0.13 0.36,0.15 0.64,0.12 0.65,0.12 1.31,0.12z"/>
   <path class="fil2" d="M432.81 299.67c-0.48,-0.31 0,-0.27 -0.93,-0.42 -0.37,-0.06 -0.91,-0.03 -1.29,-0.03 0.44,0.28 0.04,0.27 0.91,0.41 0.42,0.07 0.88,0.04 1.31,0.04z"/>
   <path class="fil3" d="M407.24 299.21c-0.25,0 -0.76,-0.01 -0.9,0.03 -0.83,0.24 -0.48,0.12 -0.94,0.42 0.28,-0 0.71,0.01 0.88,-0.04 1.37,-0.38 0.42,-0.08 0.96,-0.41z"/>
   <path class="fil4" d="M495.28 7.19c0,-0.68 0.14,-0.45 -0.66,-0.45 0,0.68 -0.14,0.45 0.66,0.45z"/>
   <path class="fil5" d="M452.31 623.59c-0.77,0 -0.63,-0.22 -0.63,0.45 0.77,0 0.63,0.22 0.63,-0.45z"/>
   <path class="fil6" d="M6.75 504.98c0,-0.72 0.2,-0.58 -0.45,-0.58 0,0.72 -0.2,0.58 0.45,0.58z"/>
   <path class="fil7" d="M0.01 379.32l0.45 -1.03c-0.58,0.35 -0.45,-0.69 -0.45,1.03z"/>
   <polygon class="fil8" points="224.28,47.62 223.83,48.07 "/>
   <polygon class="fil9" points="478.21,224.19 477.75,223.74 "/>
   <polygon class="fil10" points="454.38,304.15 453.93,303.71 "/>
   <polygon class="fil11" points="358.21,314.94 357.76,315.39 "/>
   <polygon class="fil8" points="529.89,370.2 529.44,369.75 "/>
   <polygon class="fil12" points="303.82,381.88 303.38,382.42 "/>
   <polygon class="fil13" points="217.09,458.74 216.64,458.26 "/>
  </g>
 </g>
</svg>
